<svg width="40" height="40" viewBox="0 0 40 40" fill="none" xmlns="http://www.w3.org/2000/svg">
<rect width="40" height="40" rx="4" fill="white"/>
<path d="M24.5417 28.9584C23.6001 28.9584 22.6084 28.7334 21.5834 28.3C20.5834 27.875 19.5751 27.2917 18.5917 26.5834C17.6167 25.8667 16.6751 25.0667 15.7834 24.1917C14.9001 23.3 14.1001 22.3584 13.3917 21.3917C12.6751 20.3917 12.1001 19.3917 11.6917 18.425C11.2584 17.3917 11.0417 16.3917 11.0417 15.45C11.0417 14.8 11.1584 14.1834 11.3834 13.6084C11.6167 13.0167 11.9917 12.4667 12.5001 11.9917C13.1417 11.3584 13.8751 11.0417 14.6584 11.0417C14.9834 11.0417 15.3167 11.1167 15.6001 11.25C15.9251 11.4 16.2001 11.625 16.4001 11.925L18.3334 14.65C18.5084 14.8917 18.6417 15.125 18.7334 15.3584C18.8417 15.6084 18.9001 15.8584 18.9001 16.1C18.9001 16.4167 18.8084 16.725 18.6334 17.0167C18.5084 17.2417 18.3167 17.4834 18.0751 17.725L17.5084 18.3167C17.5167 18.3417 17.5251 18.3584 17.5334 18.375C17.6334 18.55 17.8334 18.85 18.2167 19.3C18.6251 19.7667 19.0084 20.1917 19.3917 20.5834C19.8834 21.0667 20.2917 21.45 20.6751 21.7667C21.1501 22.1667 21.4584 22.3667 21.6417 22.4584L21.6251 22.5L22.2334 21.9C22.4917 21.6417 22.7417 21.45 22.9834 21.325C23.4417 21.0417 24.0251 20.9917 24.6084 21.2334C24.8251 21.325 25.0584 21.45 25.3084 21.625L28.0751 23.5917C28.3834 23.8 28.6084 24.0667 28.7417 24.3834C28.8667 24.7 28.9251 24.9917 28.9251 25.2834C28.9251 25.6834 28.8334 26.0834 28.6584 26.4584C28.4834 26.8334 28.2667 27.1584 27.9917 27.4584C27.5167 27.9834 27.0001 28.3584 26.4001 28.6C25.8251 28.8334 25.2001 28.9584 24.5417 28.9584ZM14.6584 12.2917C14.2001 12.2917 13.7751 12.4917 13.3667 12.8917C12.9834 13.25 12.7167 13.6417 12.5501 14.0667C12.3751 14.5 12.2917 14.9584 12.2917 15.45C12.2917 16.225 12.4751 17.0667 12.8417 17.9334C13.2167 18.8167 13.7417 19.7334 14.4084 20.65C15.0751 21.5667 15.8334 22.4584 16.6667 23.3C17.5001 24.125 18.4001 24.8917 19.3251 25.5667C20.2251 26.225 21.1501 26.7584 22.0667 27.1417C23.4917 27.75 24.8251 27.8917 25.9251 27.4334C26.3501 27.2584 26.7251 26.9917 27.0667 26.6084C27.2584 26.4 27.4084 26.175 27.5334 25.9084C27.6334 25.7 27.6834 25.4834 27.6834 25.2667C27.6834 25.1334 27.6584 25 27.5917 24.85C27.5667 24.8 27.5167 24.7084 27.3584 24.6L24.5917 22.6334C24.4251 22.5167 24.2751 22.4334 24.1334 22.375C23.9501 22.3 23.8751 22.225 23.5917 22.4C23.4251 22.4834 23.2751 22.6084 23.1084 22.775L22.4751 23.4C22.1501 23.7167 21.6501 23.7917 21.2667 23.65L21.0417 23.55C20.7001 23.3667 20.3001 23.0834 19.8584 22.7084C19.4584 22.3667 19.0251 21.9667 18.5001 21.45C18.0917 21.0334 17.6834 20.5917 17.2584 20.1C16.8667 19.6417 16.5834 19.25 16.4084 18.925L16.3084 18.675C16.2584 18.4834 16.2417 18.375 16.2417 18.2584C16.2417 17.9584 16.3501 17.6917 16.5584 17.4834L17.1834 16.8334C17.3501 16.6667 17.4751 16.5084 17.5584 16.3667C17.6251 16.2584 17.6501 16.1667 17.6501 16.0834C17.6501 16.0167 17.6251 15.9167 17.5834 15.8167C17.5251 15.6834 17.4334 15.5334 17.3167 15.375L15.3834 12.6417C15.3001 12.525 15.2001 12.4417 15.0751 12.3834C14.9417 12.325 14.8001 12.2917 14.6584 12.2917ZM21.6251 22.5084L21.4917 23.075L21.7167 22.4917C21.6751 22.4834 21.6417 22.4917 21.6251 22.5084Z" fill="#1A2630"/>
</svg>
