<svg width="24" height="24" viewBox="0 0 24 24" fill="none" xmlns="http://www.w3.org/2000/svg">
<rect width="24" height="24" rx="4" fill="#E9F4FF"/>
<path d="M12.8465 19.5H11.1665C10.6999 19.5 10.2799 19.2999 9.99986 18.9599C9.75319 18.6533 9.65986 18.26 9.74652 17.8866L10.0199 16.68C10.0732 16.4533 10.2732 16.2933 10.5065 16.2933H13.5065C13.7399 16.2933 13.9399 16.4533 13.9932 16.68L14.2665 17.8866C14.3532 18.2866 14.2732 18.6733 14.0265 18.98C13.7532 19.3066 13.3265 19.5 12.8465 19.5ZM10.9065 17.28L10.7199 18.1C10.6999 18.2 10.7399 18.28 10.7799 18.3266C10.8665 18.4333 11.0065 18.4933 11.1665 18.4933H12.8465C13.0199 18.4933 13.1665 18.44 13.2465 18.34C13.2999 18.2733 13.3132 18.1933 13.2932 18.0933L13.1065 17.2733H10.9065V17.28Z" fill="#1A2630"/>
<path d="M13.5068 17.28C13.3668 17.28 13.2334 17.2267 13.1334 17.1134C12.9534 16.9067 12.9668 16.5933 13.1734 16.4067L14.3268 15.38C14.7868 14.9733 14.7668 14.8734 14.4268 14.4467L12.3934 11.8667C12.2801 11.7267 12.1468 11.6467 12.0068 11.6467C11.8668 11.6467 11.7334 11.7267 11.6201 11.8667L9.58677 14.4467C9.22677 14.9067 9.23343 15.0067 9.67343 15.3667L10.8401 16.4067C11.0468 16.5867 11.0668 16.9067 10.8801 17.1134C10.6934 17.32 10.3801 17.34 10.1734 17.1533L9.0201 16.1266C8.1801 15.44 8.10676 14.7067 8.80009 13.8267L10.8334 11.2467C11.1334 10.8667 11.5601 10.6467 12.0068 10.6467C12.4534 10.6467 12.8801 10.8667 13.1801 11.2467L15.2134 13.8267C15.9001 14.6933 15.8334 15.3866 14.9934 16.1266L13.8401 17.1533C13.7401 17.24 13.6201 17.28 13.5068 17.28Z" fill="#1A2630"/>
<path d="M12.0066 13.6C11.7333 13.6 11.5066 13.3733 11.5066 13.1V11.4133C11.5066 11.14 11.7333 10.9133 12.0066 10.9133C12.2799 10.9133 12.5066 11.14 12.5066 11.4133V13.1C12.5066 13.38 12.2799 13.6 12.0066 13.6Z" fill="#1A2630"/>
<path d="M12.3468 7.83331H11.6801C11.0401 7.83331 10.5134 7.30665 10.5134 6.66665V5.99998C10.5134 5.35998 11.0401 4.83331 11.6801 4.83331H12.3468C12.9868 4.83331 13.5134 5.35998 13.5134 5.99998V6.66665C13.5134 7.30665 12.9934 7.83331 12.3468 7.83331ZM11.6801 5.83331C11.5868 5.83331 11.5134 5.90665 11.5134 5.99998V6.66665C11.5134 6.75998 11.5868 6.83331 11.6801 6.83331H12.3468C12.4401 6.83331 12.5134 6.75998 12.5134 6.66665V5.99998C12.5134 5.90665 12.4401 5.83331 12.3468 5.83331H11.6801Z" fill="#1A2630"/>
<path d="M6.84676 13.9466H6.18009C5.54009 13.9466 5.01343 13.42 5.01343 12.78V12.1133C5.01343 11.4733 5.54009 10.9466 6.18009 10.9466H6.84676C7.48676 10.9466 8.01343 11.4733 8.01343 12.1133V12.78C8.01343 13.42 7.48676 13.9466 6.84676 13.9466ZM6.18009 11.9466C6.08676 11.9466 6.01343 12.02 6.01343 12.1133V12.78C6.01343 12.8733 6.08676 12.9466 6.18009 12.9466H6.84676C6.94009 12.9466 7.01343 12.8733 7.01343 12.78V12.1133C7.01343 12.02 6.94009 11.9466 6.84676 11.9466H6.18009Z" fill="#1A2630"/>
<path d="M17.8199 13.9466H17.1532C16.5132 13.9466 15.9866 13.42 15.9866 12.78V12.1133C15.9866 11.4733 16.5132 10.9466 17.1532 10.9466H17.8199C18.4599 10.9466 18.9866 11.4733 18.9866 12.1133V12.78C18.9866 13.42 18.4666 13.9466 17.8199 13.9466ZM17.1532 11.9466C17.0599 11.9466 16.9866 12.02 16.9866 12.1133V12.78C16.9866 12.8733 17.0599 12.9466 17.1532 12.9466H17.8199C17.9132 12.9466 17.9866 12.8733 17.9866 12.78V12.1133C17.9866 12.02 17.9132 11.9466 17.8199 11.9466H17.1532Z" fill="#1A2630"/>
<path d="M6.5 11.9467C6.22667 11.9467 6 11.72 6 11.4467C6 8.60002 8.13333 6.2067 10.96 5.87337C11.2333 5.8467 11.48 6.04002 11.5133 6.31335C11.5467 6.58668 11.3467 6.83336 11.0733 6.86669C8.75333 7.14003 7 9.10669 7 11.4467C7 11.72 6.77333 11.9467 6.5 11.9467Z" fill="#1A2630"/>
<path d="M17.5001 11.9467C17.2268 11.9467 17.0001 11.72 17.0001 11.4467C17.0001 9.12 15.2601 7.15335 12.9534 6.87335C12.6801 6.84001 12.4868 6.59334 12.5201 6.32C12.5534 6.04667 12.8001 5.84669 13.0801 5.88669C15.8868 6.22669 18.0068 8.62001 18.0068 11.4533C18.0001 11.72 17.7801 11.9467 17.5001 11.9467Z" fill="#1A2630"/>
</svg>
