<svg width="24" height="24" viewBox="0 0 24 24" fill="none" xmlns="http://www.w3.org/2000/svg">
<rect width="24" height="24" rx="4" fill="#E9F4FF"/>
<path d="M13.9999 19.1666H9.99992C6.37992 19.1666 4.83325 17.62 4.83325 14V9.99998C4.83325 6.37998 6.37992 4.83331 9.99992 4.83331H13.9999C17.6199 4.83331 19.1666 6.37998 19.1666 9.99998V14C19.1666 17.62 17.6199 19.1666 13.9999 19.1666ZM9.99992 5.83331C6.92659 5.83331 5.83325 6.92665 5.83325 9.99998V14C5.83325 17.0733 6.92659 18.1666 9.99992 18.1666H13.9999C17.0733 18.1666 18.1666 17.0733 18.1666 14V9.99998C18.1666 6.92665 17.0733 5.83331 13.9999 5.83331H9.99992Z" fill="#1A2630"/>
<path d="M10.3999 14.52C10.2732 14.52 10.1466 14.4733 10.0466 14.3733L8.38655 12.7133C7.99322 12.32 7.99322 11.6867 8.38655 11.2933L10.0466 9.63334C10.2399 9.44001 10.5599 9.44001 10.7532 9.63334C10.9466 9.82668 10.9466 10.1467 10.7532 10.34L9.09322 12L10.7532 13.6667C10.9466 13.86 10.9466 14.18 10.7532 14.3733C10.6532 14.4667 10.5266 14.52 10.3999 14.52Z" fill="#1A2630"/>
<path d="M13.5999 14.52C13.4732 14.52 13.3466 14.4734 13.2466 14.3734C13.0532 14.18 13.0532 13.86 13.2466 13.6667L14.9066 12L13.2466 10.3334C13.0532 10.14 13.0532 9.82002 13.2466 9.62669C13.4399 9.43336 13.7599 9.43336 13.9532 9.62669L15.6132 11.2867C16.0066 11.68 16.0066 12.3134 15.6132 12.7067L13.9532 14.3667C13.8599 14.4667 13.7266 14.52 13.5999 14.52Z" fill="#1A2630"/>
</svg>
