<svg width="40" height="40" viewBox="0 0 40 40" fill="none" xmlns="http://www.w3.org/2000/svg">
<rect width="40" height="40" rx="4" fill="white"/>
<path d="M19.9999 21.8083C18.2249 21.8083 16.7749 20.3666 16.7749 18.5833C16.7749 16.8 18.2249 15.3666 19.9999 15.3666C21.7749 15.3666 23.2249 16.8083 23.2249 18.5916C23.2249 20.375 21.7749 21.8083 19.9999 21.8083ZM19.9999 16.6166C18.9166 16.6166 18.0249 17.5 18.0249 18.5916C18.0249 19.6833 18.9082 20.5666 19.9999 20.5666C21.0916 20.5666 21.9749 19.6833 21.9749 18.5916C21.9749 17.5 21.0832 16.6166 19.9999 16.6166Z" fill="#1A2630"/>
<path d="M19.9999 28.9667C18.7666 28.9667 17.5249 28.5 16.5582 27.575C14.0999 25.2084 11.3832 21.4334 12.4082 16.9417C13.3332 12.8667 16.8916 11.0417 19.9999 11.0417C19.9999 11.0417 19.9999 11.0417 20.0082 11.0417C23.1166 11.0417 26.6749 12.8667 27.5999 16.95C28.6166 21.4417 25.8999 25.2084 23.4416 27.575C22.4749 28.5 21.2332 28.9667 19.9999 28.9667ZM19.9999 12.2917C17.5749 12.2917 14.4582 13.5834 13.6332 17.2167C12.7332 21.1417 15.1999 24.525 17.4332 26.6667C18.8749 28.0584 21.1332 28.0584 22.5749 26.6667C24.7999 24.525 27.2666 21.1417 26.3832 17.2167C25.5499 13.5834 22.4249 12.2917 19.9999 12.2917Z" fill="#1A2630"/>
</svg>
