<svg width="30" height="24" viewBox="0 0 30 24" fill="none" xmlns="http://www.w3.org/2000/svg">
<path d="M28.5 13.5H1.5C1.10218 13.5 0.720645 13.3419 0.439339 13.0606C0.158035 12.7794 0 12.3978 0 12C0 11.6022 0.158035 11.2206 0.439339 10.9393C0.720645 10.658 1.10218 10.5 1.5 10.5H28.5C28.8978 10.5 29.2794 10.658 29.5606 10.9393C29.8419 11.2206 30 11.6022 30 12C30 12.3978 29.8419 12.7794 29.5606 13.0606C29.2794 13.3419 28.8978 13.5 28.5 13.5ZM28.5 3H1.5C1.10218 3 0.720645 2.84196 0.439339 2.56066C0.158035 2.27935 0 1.89783 0 1.5C0 1.10217 0.158035 0.720645 0.439339 0.439335C0.720645 0.15804 1.10218 0 1.5 0H28.5C28.8978 0 29.2794 0.15804 29.5606 0.439335C29.8419 0.720645 30 1.10217 30 1.5C30 1.89783 29.8419 2.27935 29.5606 2.56066C29.2794 2.84196 28.8978 3 28.5 3ZM28.5 24H1.5C1.10218 24 0.720645 23.8419 0.439339 23.5606C0.158035 23.2794 0 22.8978 0 22.5C0 22.1022 0.158035 21.7206 0.439339 21.4394C0.720645 21.1581 1.10218 21 1.5 21H28.5C28.8978 21 29.2794 21.1581 29.5606 21.4394C29.8419 21.7206 30 22.1022 30 22.5C30 22.8978 29.8419 23.2794 29.5606 23.5606C29.2794 23.8419 28.8978 24 28.5 24Z" fill="black"/>
</svg>
