<svg width="38" height="31" viewBox="0 0 38 31" fill="none" xmlns="http://www.w3.org/2000/svg">
<path d="M0 20.5752C0 12.208 4.78417 4.52655 11.0719 0L16.1295 4.11505C11.7554 6.99557 7.79137 12.4823 7.38129 16.8717C7.51798 16.8717 8.47482 16.7345 9.15827 16.7345C12.9856 16.7345 15.7194 19.615 15.7194 23.7301C15.7194 27.708 12.5755 31 8.47482 31C3.96403 31 0 27.2965 0 20.5752ZM21.8705 20.5752C21.8705 12.208 26.6547 4.52655 32.9424 0L38 4.11505C33.6259 6.99557 29.7986 12.4823 29.2518 16.8717C29.3885 16.8717 30.3453 16.7345 31.0288 16.7345C34.8561 16.7345 37.7266 19.615 37.7266 23.7301C37.7266 27.708 34.446 31 30.3453 31C25.8345 31 21.8705 27.2965 21.8705 20.5752Z" fill="#DAE1FC"/>
</svg>
