<svg width="40" height="40" viewBox="0 0 40 40" fill="none" xmlns="http://www.w3.org/2000/svg">
<rect width="40" height="40" rx="4" fill="white"/>
<path d="M24.1667 27.7084H15.8334C12.7917 27.7084 11.0417 25.9584 11.0417 22.9167V17.0834C11.0417 14.0417 12.7917 12.2917 15.8334 12.2917H24.1667C27.2084 12.2917 28.9584 14.0417 28.9584 17.0834V22.9167C28.9584 25.9584 27.2084 27.7084 24.1667 27.7084ZM15.8334 13.5417C13.4501 13.5417 12.2917 14.7 12.2917 17.0834V22.9167C12.2917 25.3 13.4501 26.4584 15.8334 26.4584H24.1667C26.5501 26.4584 27.7084 25.3 27.7084 22.9167V17.0834C27.7084 14.7 26.5501 13.5417 24.1667 13.5417H15.8334Z" fill="#1A2630"/>
<path d="M19.9997 20.725C19.2997 20.725 18.5914 20.5083 18.0497 20.0666L15.4414 17.9833C15.1747 17.7666 15.1247 17.375 15.3414 17.1083C15.5581 16.8416 15.9497 16.7916 16.2164 17.0083L18.8247 19.0916C19.4581 19.6 20.5331 19.6 21.1664 19.0916L23.7747 17.0083C24.0414 16.7916 24.4414 16.8333 24.6497 17.1083C24.8664 17.375 24.8247 17.775 24.5497 17.9833L21.9414 20.0666C21.4081 20.5083 20.6997 20.725 19.9997 20.725Z" fill="#1A2630"/>
</svg>
