<svg width="18" height="18" viewBox="0 0 18 18" fill="none" xmlns="http://www.w3.org/2000/svg">
<path d="M12.75 15.9375H5.25C2.5125 15.9375 0.9375 14.3625 0.9375 11.625V6.375C0.9375 3.6375 2.5125 2.0625 5.25 2.0625H12.75C15.4875 2.0625 17.0625 3.6375 17.0625 6.375V11.625C17.0625 14.3625 15.4875 15.9375 12.75 15.9375ZM5.25 3.1875C3.105 3.1875 2.0625 4.23 2.0625 6.375V11.625C2.0625 13.77 3.105 14.8125 5.25 14.8125H12.75C14.895 14.8125 15.9375 13.77 15.9375 11.625V6.375C15.9375 4.23 14.895 3.1875 12.75 3.1875H5.25Z" fill="#F5F5F5"/>
<path d="M8.99983 9.65247C8.36983 9.65247 7.73234 9.45748 7.24484 9.05998L4.89733 7.18498C4.65733 6.98998 4.61234 6.63748 4.80734 6.39748C5.00234 6.15748 5.35484 6.11248 5.59484 6.30748L7.94233 8.18248C8.51233 8.63998 9.47983 8.63998 10.0498 8.18248L12.3973 6.30748C12.6373 6.11248 12.9973 6.14998 13.1848 6.39748C13.3798 6.63748 13.3423 6.99748 13.0948 7.18498L10.7473 9.05998C10.2673 9.45748 9.62983 9.65247 8.99983 9.65247Z" fill="#F5F5F5"/>
</svg>
